<svg width="211" height="117" viewBox="0 0 211 117" fill="none" xmlns="http://www.w3.org/2000/svg">
<path d="M5.3207 98.0101L7.41624 116.144L87.5979 99.9965L89.7753 81.1093L5.3207 98.0101Z" fill="#EA0029"/>
<path d="M5.56627 100.127L5.69178 101.246L89.3824 84.4982L89.5188 83.325L5.56627 100.127Z" fill="white"/>
<path d="M7.1543 113.869L87.8598 97.7209L87.9963 96.5476L7.02333 112.75L7.1543 113.869Z" fill="white"/>
<path d="M102.474 21.7194L100.613 40.0117L209.139 18.2868L211 0L102.474 21.7194Z" fill="#EA0029"/>
<path d="M102.278 23.6894L102.158 24.8572L210.678 3.13786L210.798 1.97003L102.278 23.6894Z" fill="white"/>
<path d="M100.815 38.0417L209.341 16.3223L209.456 15.149L100.935 36.8684L100.815 38.0417Z" fill="white"/>
<path d="M24.4589 72.1269L21.321 38.2272L13.9157 39.717L10.8924 74.6154L7.53084 41.0049L0 42.522L5.0151 90.5502L15.2636 88.4874L17.441 65.8785L19.6238 87.6088L29.5558 85.606L34.5709 35.5587L27.7059 36.9393L24.4589 72.1269Z" fill="white"/>
<path d="M55.3299 33.736C53.4362 32.1862 50.8114 31.7332 47.5371 32.3935C40.6284 33.7851 36.6665 39.1222 36.6665 47.035V72.1269C36.6665 76.3671 37.7524 79.4122 39.8971 81.1639C41.2286 82.2553 42.9203 82.8011 44.9449 82.8011C45.8017 82.8011 46.7185 82.7028 47.6899 82.5064C54.5986 81.1148 58.5605 75.7777 58.5605 67.8703V42.7785C58.5605 38.5328 57.4745 35.4932 55.3299 33.736ZM50.8277 43.6953V69.7531C50.8277 72.7436 49.7472 74.4134 47.5316 74.8555C46.5875 75.0465 45.8836 74.9428 45.387 74.5335C44.7267 73.9933 44.3883 72.8691 44.3883 71.2047V45.1469C44.3883 42.1563 45.4688 40.4865 47.6844 40.0444C47.9846 39.9844 48.2629 39.9517 48.5194 39.9517C49.0596 39.9517 49.4907 40.0881 49.8291 40.3664C50.4948 40.9067 50.8277 42.0308 50.8277 43.6953Z" fill="white"/>
<path d="M85.1203 59.903L81.9879 26.0033L74.5772 27.4985L71.5594 62.3969L68.1923 28.7809L60.6669 30.298L65.6766 78.3317L75.9251 76.2634L78.1079 53.6545L80.2908 75.3848L90.2228 73.3875L95.2379 23.3347L88.3728 24.7154L85.1203 59.903Z" fill="white"/>
<path d="M112.313 67.3083C109.192 64.8253 106.49 62.6752 106.49 58.3094C106.49 55.2371 107.467 53.6709 109.661 53.2289C110.572 53.0433 111.238 53.1415 111.707 53.5235C112.351 54.0529 112.679 55.188 112.679 56.9015V61.8129L120.03 60.334V56.0611C120.03 51.7172 118.955 48.634 116.837 46.8986C115.015 45.4088 112.488 44.9777 109.317 45.6162C102.512 46.9859 98.7577 52.1647 98.7577 60.1922C98.7577 67.8376 102.889 71.1228 106.54 74.026C109.661 76.509 112.362 78.6591 112.362 83.0248C112.362 86.0098 111.315 87.6088 109.066 88.0617C108.1 88.2582 107.391 88.1545 106.894 87.7507C106.25 87.2213 105.923 86.1245 105.923 84.4819V77.2457L98.5722 78.7246V85.3223C98.5722 89.6388 99.6472 92.7057 101.77 94.4411C103.063 95.4998 104.711 96.0346 106.692 96.0346C107.538 96.0346 108.444 95.9364 109.405 95.7454C116.291 94.3593 120.09 89.1695 120.09 81.1421C120.095 73.4966 115.959 70.2115 112.313 67.3083Z" fill="white"/>
<path d="M138.175 63.3573L131.037 64.7925V41.7962L123.309 43.3515V92.3947L131.037 90.834V72.4707L138.175 71.0355V89.3987L146.033 87.8162V38.7729L138.175 40.3555V63.3573Z" fill="white"/>
<path d="M168.418 36.6228C166.524 35.073 163.899 34.6201 160.625 35.2804C153.716 36.6719 149.755 42.009 149.755 49.9219V75.0138C149.755 79.2539 150.841 82.299 152.985 84.0508C154.317 85.1422 156.008 85.6879 158.033 85.6879C158.89 85.6879 159.807 85.5897 160.778 85.3932C167.687 84.0016 171.649 78.6646 171.649 70.7572V45.6653C171.649 41.4196 170.563 38.38 168.418 36.6228ZM163.921 46.5821V72.6399C163.921 75.6304 162.841 77.3003 160.625 77.7423C159.681 77.9333 158.977 77.8296 158.481 77.4203C157.82 76.8801 157.482 75.7559 157.482 74.0915V48.0337C157.482 45.0432 158.562 43.3733 160.778 42.9313C161.084 42.8712 161.356 42.8385 161.613 42.8385C162.153 42.8385 162.584 42.9749 162.923 43.2532C163.583 43.799 163.921 44.9177 163.921 46.5821Z" fill="white"/>
<path d="M201.461 27.6076L198.214 62.7897L195.076 28.89L187.671 30.3853L184.648 65.2836L181.286 31.6732L173.755 33.1903L178.727 80.7983L178.77 81.2185L189.019 79.1557L191.196 56.5468L193.379 78.2771L203.311 76.2743L208.271 26.7399L208.326 26.2215L201.461 27.6076Z" fill="white"/>
<path d="M107.997 32.9011C109.684 32.9011 111.053 31.5328 111.053 29.8451C111.053 28.1573 109.684 26.7891 107.997 26.7891C106.309 26.7891 104.941 28.1573 104.941 29.8451C104.941 31.5328 106.309 32.9011 107.997 32.9011Z" fill="white"/>
<path d="M119.828 30.5326C121.515 30.5326 122.884 29.1644 122.884 27.4766C122.884 25.7889 121.515 24.4207 119.828 24.4207C118.14 24.4207 116.772 25.7889 116.772 27.4766C116.772 29.1644 118.14 30.5326 119.828 30.5326Z" fill="white"/>
<path d="M131.659 28.1643C133.347 28.1643 134.715 26.796 134.715 25.1083C134.715 23.4205 133.347 22.0523 131.659 22.0523C129.971 22.0523 128.603 23.4205 128.603 25.1083C128.603 26.796 129.971 28.1643 131.659 28.1643Z" fill="white"/>
<path d="M143.49 25.7959C145.178 25.7959 146.546 24.4276 146.546 22.7399C146.546 21.0521 145.178 19.6839 143.49 19.6839C141.802 19.6839 140.434 21.0521 140.434 22.7399C140.434 24.4276 141.802 25.7959 143.49 25.7959Z" fill="white"/>
<path d="M155.315 23.4275C157.003 23.4275 158.371 22.0593 158.371 20.3715C158.371 18.6837 157.003 17.3155 155.315 17.3155C153.628 17.3155 152.259 18.6837 152.259 20.3715C152.259 22.0593 153.628 23.4275 155.315 23.4275Z" fill="white"/>
<path d="M167.146 21.0645C168.834 21.0645 170.202 19.6963 170.202 18.0085C170.202 16.3208 168.834 14.9525 167.146 14.9525C165.459 14.9525 164.09 16.3208 164.09 18.0085C164.09 19.6963 165.459 21.0645 167.146 21.0645Z" fill="white"/>
<path d="M178.907 18.7725C180.594 18.7725 181.963 17.4043 181.963 15.7165C181.963 14.0288 180.594 12.6606 178.907 12.6606C177.219 12.6606 175.851 14.0288 175.851 15.7165C175.851 17.4043 177.219 18.7725 178.907 18.7725Z" fill="white"/>
<path d="M190.738 16.4041C192.425 16.4041 193.794 15.0359 193.794 13.3481C193.794 11.6604 192.425 10.2921 190.738 10.2921C189.05 10.2921 187.682 11.6604 187.682 13.3481C187.682 15.0359 189.05 16.4041 190.738 16.4041Z" fill="white"/>
<path d="M202.574 14.0466C204.262 14.0466 205.63 12.6784 205.63 10.9907C205.63 9.30288 204.262 7.93466 202.574 7.93466C200.886 7.93466 199.518 9.30288 199.518 10.9907C199.518 12.6784 200.886 14.0466 202.574 14.0466Z" fill="white"/>
<path d="M11.8583 108.821C13.5461 108.821 14.9143 107.452 14.9143 105.765C14.9143 104.077 13.5461 102.709 11.8583 102.709C10.1706 102.709 8.80235 104.077 8.80235 105.765C8.80235 107.452 10.1706 108.821 11.8583 108.821Z" fill="white"/>
<path d="M23.6894 106.458C25.3772 106.458 26.7454 105.09 26.7454 103.402C26.7454 101.714 25.3772 100.346 23.6894 100.346C22.0016 100.346 20.6334 101.714 20.6334 103.402C20.6334 105.09 22.0016 106.458 23.6894 106.458Z" fill="white"/>
<path d="M35.5205 104.089C37.2082 104.089 38.5765 102.721 38.5765 101.033C38.5765 99.3456 37.2082 97.9774 35.5205 97.9774C33.8327 97.9774 32.4645 99.3456 32.4645 101.033C32.4645 102.721 33.8327 104.089 35.5205 104.089Z" fill="white"/>
<path d="M47.3515 101.721C49.0393 101.721 50.4075 100.353 50.4075 98.6649C50.4075 96.9772 49.0393 95.6089 47.3515 95.6089C45.6638 95.6089 44.2955 96.9772 44.2955 98.6649C44.2955 100.353 45.6638 101.721 47.3515 101.721Z" fill="white"/>
<path d="M59.1117 99.4289C60.7994 99.4289 62.1677 98.0607 62.1677 96.373C62.1677 94.6852 60.7994 93.317 59.1117 93.317C57.4239 93.317 56.0557 94.6852 56.0557 96.373C56.0557 98.0607 57.4239 99.4289 59.1117 99.4289Z" fill="white"/>
<path d="M70.9373 97.0605C72.625 97.0605 73.9932 95.6923 73.9932 94.0045C73.9932 92.3168 72.625 90.9485 70.9373 90.9485C69.2495 90.9485 67.8813 92.3168 67.8813 94.0045C67.8813 95.6923 69.2495 97.0605 70.9373 97.0605Z" fill="white"/>
<path d="M82.7792 94.7085C84.467 94.7085 85.8352 93.3403 85.8352 91.6525C85.8352 89.9647 84.467 88.5965 82.7792 88.5965C81.0915 88.5965 79.7232 89.9647 79.7232 91.6525C79.7232 93.3403 81.0915 94.7085 82.7792 94.7085Z" fill="white"/>
</svg>
